<svg id="Layer_1" data-name="Layer 1" xmlns="http://www.w3.org/2000/svg" xmlns:xlink="http://www.w3.org/1999/xlink" viewBox="0 0 121.97 103.97"><defs><style>.cls-1{fill:url(#linear-gradient);}</style><linearGradient id="linear-gradient" x1="-2543.13" y1="1163.04" x2="-2543.13" y2="1162.04" gradientTransform="matrix(121.97, 0, 0, -103.16, 310235.09, 119983.83)" gradientUnits="userSpaceOnUse"><stop offset="0" stop-color="#79ccda"/><stop offset="1" stop-color="#8a9cd2"/></linearGradient></defs><path id="Path_1" data-name="Path 1" class="cls-1" d="M14,59.54a10.07,10.07,0,0,0,2-10c0-.12-.08-.22-.12-.32a.42.42,0,0,0-.55-.24.78.78,0,0,0-.15.1L0,65.24v7.7S9.59,64.48,14,59.54ZM120,23.31l-.08-.1c-3-3.77-7.91-4.14-11.44-4.09a4.93,4.93,0,0,0-.55,0,6.93,6.93,0,0,1-3.45-.83,10,10,0,0,1-3.38-2.86L89.75.54l-.3,6.23a9.1,9.1,0,0,1-2.22,5.53l0,0c-.32.37-.67.72-1,1.06-8.35,7.8-11.14,14.18-12.47,19.27-.94,2.89-1.09,9.82-1.09,13.83,0,1.78,0,3,0,3a12.14,12.14,0,0,1-4.82,3.69C55,58.58,52.52,68.53,52.05,71.75a.65.65,0,0,1-.75.55.64.64,0,0,1-.26-.1C47,52.43,42.72,50.49,40.14,49c-2.53-1.22-5.5,1.53-7.88,4.85A31,31,0,0,0,27.52,64a94,94,0,0,1-10,25,15.75,15.75,0,0,1-3.42,4.28C6.6,99.72,3.5,90.09,0,83.44c.89,6,1.36,8,4,12.84a28,28,0,0,0,2.48,3.82c4.5,5.77,6.47,3.14,9.51.8a9.5,9.5,0,0,0,1.74-1.73A34.15,34.15,0,0,0,21,93.4a71.16,71.16,0,0,0,4-10.78c.71-2.52,1.84-6.24,3.2-9.91a24.78,24.78,0,0,1,4.54-7.66c6.91-7.89,10.07-1.22,11,1.35.31.91.65,1.82,1,2.71.93,2.2,2.71,6.31,5.26,11.92a41.26,41.26,0,0,0,24,21.83l.18,0c.35.12.7.26,1,.4,2.69,1.06,3.48-.3,3.7-1.17a3.11,3.11,0,0,0,.09-.86c0-.75-.1-3.46.16-8.56.3-3-2.27-3.42-5.29-4.38-12.1-4.22-15.42-11.08-18-14.45-1.77-2.12,0-3.4,1.34-4a33,33,0,0,0,2.95-1.53c1.8-1.07,4.77-2.81,8.5-4.9,1.92-1.07,3.81-2.21,5.68-3.37a39,39,0,0,1,4.16-2.27,16.06,16.06,0,0,1,7-1.48h.21c1.59,0,3.16.1,4.73.23,17.12,1.37,23.71-5.46,26.83-10.38a28.45,28.45,0,0,0,3.81-9.74,60.58,60.58,0,0,0,.87-6.57A9.52,9.52,0,0,0,120,23.31ZM93.41,37.25l-.75.69-1.77,1.7c-1.38,1.31-2.73,2.66-4.09,4-4.64,4.58-6,1-9.3-2.52s0-9.22,0-9.22a36.72,36.72,0,0,1,4.17-5,42.35,42.35,0,0,0,3.23-4c3.36-4.58,7.37,1.3,9.3,4.82a8.84,8.84,0,0,1,.83,6.6A6,6,0,0,1,93.41,37.25Zm21,1c-2,2.54-6.93,5.95-19.81,7.42a.66.66,0,0,1-.73-.56.61.61,0,0,1,.09-.42c1.61-2.64,5.42-9.45,5.75-14.95a1.27,1.27,0,0,1,1.37-1.19h.08c3.63.47,9.58,1.66,12.6,4.06A4,4,0,0,1,114.38,38.24ZM43.45,30c1.89.22,3.84-.75,3.39-6.25a.29.29,0,0,1,.27-.31s0,0,.06,0c3,.4,5.72.3,6.37-4.61.68-5.25-.38-7.63-2.2-11.2L49.68,9.6s3.19,4,1.42,7.56a2.37,2.37,0,0,1-1.9,1.32c-1.07.09-2.07-.55-3.15-2.78,0,4.9-.6,6.54-.6,6.54s-1.65,5.13-4,2.53a5.27,5.27,0,0,1-.52-.72l-2.1-3.59a18.73,18.73,0,0,0,1.09,7A4.54,4.54,0,0,0,43.45,30Z"/></svg>