<svg id="Layer_1" data-name="Layer 1" xmlns="http://www.w3.org/2000/svg" viewBox="0 0 95.04 89.08"><defs><style>.cls-1{fill:#fde67b;}.cls-2{fill:#a8ebef;}.cls-3{fill:#4a3985;}</style></defs><ellipse id="Ellipse_23" data-name="Ellipse 23" class="cls-1" cx="47.31" cy="44.65" rx="35.44" ry="34.88"/><path id="Path_3604" data-name="Path 3604" class="cls-2" d="M5.21,83.72a5,5,0,0,0,7.12,0l6.08-6.07,6.07,6.07A5,5,0,0,0,31.6,76.6h0l-6.08-6.07,6.08-6.08a5,5,0,0,0-7.12-7.12h0L18.4,63.4l-6.07-6.07a5,5,0,0,0-7.12,7.12h0l6.07,6.08L5.21,76.6a5,5,0,0,0,0,7.12Z"/><path id="Path_3605" data-name="Path 3605" class="cls-2" d="M79.73,75.56h6.8a5,5,0,0,0,0-10.07h-6.8V58.7a5,5,0,1,0-10.07,0v6.79H62.87a5,5,0,1,0,0,10.07h6.79v6.79a5,5,0,1,0,10.07,0h0Z"/><path id="Path_3606" data-name="Path 3606" class="cls-3" d="M2.94,18.92a6.6,6.6,0,0,0,3.72,1.14H33.91a6.65,6.65,0,1,0,0-13.29H23.77a1.61,1.61,0,0,0,0,3.22H33.91a3.43,3.43,0,1,1,0,6.85H6.66a3.42,3.42,0,0,1-1.91-6.26A3.34,3.34,0,0,1,6.66,10H13a1.61,1.61,0,1,0,0-3.22H6.66A6.64,6.64,0,0,0,2.94,18.92Z"/><path id="Path_3607" data-name="Path 3607" class="cls-3" d="M2.94,36.48a6.68,6.68,0,0,0,3.72,1.14H33.91a6.65,6.65,0,1,0,0-13.29H6.66A6.64,6.64,0,0,0,2.94,36.48Zm.56-6.84a3.51,3.51,0,0,1,1.24-1.51,3.46,3.46,0,0,1,1.92-.58H33.91a3.42,3.42,0,1,1,0,6.84H6.66A3.42,3.42,0,0,1,3.24,31h0a3.17,3.17,0,0,1,.26-1.32Z"/><path id="Path_3608" data-name="Path 3608" class="cls-3" d="M88.41,15.55H61.16A6.65,6.65,0,0,0,61,28.84H88.41a6.65,6.65,0,0,0,3.71-12.16,6.54,6.54,0,0,0-3.71-1.13Zm3.15,8a3.45,3.45,0,0,1-3.16,2.09H61.15a3.43,3.43,0,0,1-3.42-3.43h0a3.43,3.43,0,0,1,3.42-3.43H88.4a3.43,3.43,0,0,1,2.84,1.51,3.47,3.47,0,0,1,.32,3.26Z"/><path id="Path_3609" data-name="Path 3609" class="cls-3" d="M70.83,12.83A7.06,7.06,0,1,0,79,1.28l-.23-.15a7.06,7.06,0,0,0-8.12,11.55Zm.42-7.35a3.84,3.84,0,1,1,2,5A3.88,3.88,0,0,1,71.6,9.12,3.72,3.72,0,0,1,71,7a3.5,3.5,0,0,1,.3-1.5Z"/><path id="Path_3610" data-name="Path 3610" class="cls-3" d="M70.83,43.26a7,7,0,1,0-2.55-3.1,7,7,0,0,0,2.56,3.1Zm.42-7.34a3.82,3.82,0,0,1,3.53-2.35,3.84,3.84,0,1,1-3.18,6A3.8,3.8,0,0,1,71,37.41a3.72,3.72,0,0,1,.3-1.5Z"/><path id="Path_3611" data-name="Path 3611" class="cls-3" d="M2.61,77.66a6.65,6.65,0,0,0,10.86,7.2l4.93-4.94,4.94,4.94a6.65,6.65,0,0,0,9.58-9.22l-.18-.18L27.8,70.52l4.94-4.93a6.66,6.66,0,0,0,0-9.4h0a6.65,6.65,0,0,0-9.4,0h0L18.4,61.12l-4.93-4.93a6.65,6.65,0,0,0-9.4,9.4L9,70.52,4.07,75.46a6.61,6.61,0,0,0-1.46,2.2Zm3,1.21a3.29,3.29,0,0,1,.75-1.13l6.07-6.08a1.61,1.61,0,0,0,0-2.28h0L6.35,63.31a3.29,3.29,0,0,1-.75-1.13,3.42,3.42,0,0,1,5.59-3.71l6.07,6.07A1.66,1.66,0,0,0,18.4,65a1.58,1.58,0,0,0,1.14-.48l6.07-6.07a3.42,3.42,0,0,1,3.71-.75,3.29,3.29,0,0,1,1.13.75,3.42,3.42,0,0,1,0,4.84l-6.07,6.08a1.61,1.61,0,0,0,0,2.28l6.08,6.07A3.42,3.42,0,0,1,28,83.58a3.37,3.37,0,0,1-1.29-.25,3.29,3.29,0,0,1-1.13-.75l-6.07-6.07a1.61,1.61,0,0,0-2.28,0L11.2,82.58a3.42,3.42,0,0,1-5.84-2.42,3.18,3.18,0,0,1,.24-1.29Z"/><path id="Path_3612" data-name="Path 3612" class="cls-3" d="M60.28,64.4a6.65,6.65,0,0,0,2.59,12.77h5.18v5.18a6.65,6.65,0,0,0,13.29.17V77.17h5.19a6.63,6.63,0,0,0,6.64-6.63h0a6.63,6.63,0,0,0-6.64-6.65H81.35V58.7a6.65,6.65,0,0,0-6.64-6.65h0a6.64,6.64,0,0,0-6.65,6.64h0v5.18H62.87a6.33,6.33,0,0,0-2.58.52Zm9.39,2.7a1.62,1.62,0,0,0,1.61-1.61V58.7a3.2,3.2,0,0,1,.27-1.33,3.42,3.42,0,0,1,6.58,1.33v6.8a1.62,1.62,0,0,0,1.62,1.61h6.78a3.38,3.38,0,0,1,2.84,1.51A3.41,3.41,0,0,1,86.53,74H79.74a1.62,1.62,0,0,0-1.62,1.61h0v6.79a3.43,3.43,0,0,1-6.85,0V75.57A1.62,1.62,0,0,0,69.66,74H62.87a3.36,3.36,0,0,1-1.33-.27A3.45,3.45,0,0,1,60,72.44a3.33,3.33,0,0,1-.58-1.91,3.41,3.41,0,0,1,3.42-3.42Z"/></svg>