<svg xmlns="http://www.w3.org/2000/svg" xmlns:xlink="http://www.w3.org/1999/xlink" width="1097.485" height="820.604" viewBox="0 0 1097.485 820.604">
    <defs>
        <style>
            @font-face {
            font-family: GESSMedium;
            src: url('../fonts/GESSMedium.otf');
            }
            .cls-1,.cls-11,.cls-12,.cls-14{fill:none}.cls-1{stroke:#aed0d2;stroke-dasharray:11 14;opacity:.6}.cls-1,.cls-11{stroke-linecap:round;stroke-linejoin:round}.cls-1,.cls-6{stroke-width:3px}.cls-16,.cls-2,.cls-22{stroke:rgba(0,0,0,0);fill:url(#linear-gradient)}.cls-2,.cls-24{opacity:.63}.cls-15,.cls-17,.cls-3{fill:#a8ecf0}.cls-19,.cls-4{fill:#ffe552}.cls-13,.cls-28,.cls-31,.cls-5,.cls-7,.cls-8{fill:#4b3a85}.cls-6{fill:#faf9fa}.cls-12,.cls-6{stroke:#4b3a85}.cls-7{font-size:21px}.cls-31,.cls-7,.cls-8{font-family:GESSMedium,GESSMedium;font-weight:500}.cls-8{font-size:20px}.cls-22,.cls-9{opacity:.83}.cls-10{opacity:.7}.cls-11{stroke:#fff}.cls-11,.cls-12{stroke-width:2px}.cls-12,.cls-17,.cls-19{stroke-miterlimit:10}.cls-13,.cls-15{font-size:15px;font-family:Lato-Bold,Lato;font-weight:700}.cls-14{stroke:#a8ecf0}.cls-18{fill:#fff}.cls-20{fill:#b0eef1}.cls-21{fill:url(#linear-gradient-7)}.cls-23,.cls-28{opacity:.57}.cls-25{fill:url(#linear-gradient-10)}.cls-26{fill:url(#linear-gradient-11)}.cls-27{fill:url(#linear-gradient-12)}.cls-29{fill:#2bc3cc}.cls-30{fill:url(#linear-gradient-13)}.cls-31{font-size:28px}.cls-32,.cls-33{stroke:none}.cls-33{fill:#fcfdfd}
        </style>
        <linearGradient id="linear-gradient" x1=".212" x2=".622" y1="-.593" y2="1.188" gradientUnits="objectBoundingBox">
            <stop offset="0" stop-color="#2bc3cc"/>
            <stop offset="1" stop-color="#6c53bf"/>
        </linearGradient>
        <linearGradient id="linear-gradient-7" x1="-.468" x2="1.372" y1="-.204" y2="1.134" xlink:href="#linear-gradient"/>
        <linearGradient id="linear-gradient-10" x1="117.327" x2="118.327" y1=".5" y2=".5" xlink:href="#linear-gradient"/>
        <linearGradient id="linear-gradient-11" x1="120.765" x2="121.765" y1=".5" y2=".5" xlink:href="#linear-gradient"/>
        <linearGradient id="linear-gradient-12" x2="1" y1=".5" y2=".5" gradientUnits="objectBoundingBox">
            <stop offset="0" stop-color="#2bc3cc"/>
            <stop offset=".113" stop-color="#3ba6c8"/>
            <stop offset=".262" stop-color="#4c88c5"/>
            <stop offset=".419" stop-color="#5a70c2"/>
            <stop offset=".586" stop-color="#6460c0"/>
            <stop offset=".77" stop-color="#6a56bf"/>
            <stop offset="1" stop-color="#6c53bf"/>
        </linearGradient>
        <linearGradient id="linear-gradient-13" x2="1" y1=".5" y2=".5" xlink:href="#linear-gradient-12"/>
    </defs>
    <g id="map" transform="translate(-424.492 -129.268)">
        <path id="Path_177" d="M1402.58 227.669s-153.854-3.565-178.616 72.1C1204.4 359.548 1314.54 359.909 1337 400.85c13.754 25.067-13.043 72.823-85.866 83.692s-200.205 47.889-196.731 104.344c4.348 70.649 158.689 34.781 170.645 79.345 11.883 44.291-59.78 98.909-208.687 83.692s-194.557 35.868-221.73 63.041c-20.291 20.29-46.911 56.491-124.995 57.606-76.084 1.087-145.547 0-145.547 0" class="cls-1" data-name="Path 177" transform="translate(6.961 8.029)"/>
        <g id="live_streaming" transform="translate(1196.327 135.267)">
            <path id="Subtraction_3" d="M27.106 58.162H3.416A3.42 3.42 0 0 1 0 54.744V3.417A3.421 3.421 0 0 1 3.416 0h85.652a3.421 3.421 0 0 1 3.416 3.417v51.327a3.42 3.42 0 0 1-3.416 3.416H65.379a2.088 2.088 0 0 0 .181-1.14 19.467 19.467 0 0 0-38.635 0 2.087 2.087 0 0 0 .181 1.14zm19.136-44.275a9.916 9.916 0 1 0 9.916 9.913 9.927 9.927 0 0 0-9.916-9.913z" class="cls-2" data-name="Subtraction 3"/>
            <g id="Group_124" data-name="Group 124" transform="translate(63.946 39.05)">
                <circle id="Ellipse_44" cx="7.301" cy="7.301" r="7.301" class="cls-3" data-name="Ellipse 44" transform="translate(6.972)"/>
                <path id="Path_180" d="M1214.312 223.189a1.239 1.239 0 0 0 1.23-1.354 14.332 14.332 0 0 0-28.536 0 1.238 1.238 0 0 0 1.229 1.354z" class="cls-3" data-name="Path 180" transform="translate(-1187.001 -189.659)"/>
            </g>
            <g id="Group_125" data-name="Group 125" transform="translate(31.882 45.571)">
                <circle id="Ellipse_45" cx="7.301" cy="7.301" r="7.301" class="cls-4" data-name="Ellipse 45" transform="translate(6.972)"/>
                <path id="Path_181" d="M1184.812 227.189a1.239 1.239 0 0 0 1.23-1.354 14.332 14.332 0 0 0-28.536 0 1.238 1.238 0 0 0 1.229 1.354z" class="cls-4" data-name="Path 181" transform="translate(-1157.501 -193.659)"/>
            </g>
            <g id="Group_126" data-name="Group 126" transform="translate(2.536 35.789)">
                <circle id="Ellipse_46" cx="7.301" cy="7.301" r="7.301" class="cls-3" data-name="Ellipse 46" transform="translate(6.972)"/>
                <path id="Path_182" d="M1157.812 220.189a1.239 1.239 0 0 0 1.23-1.354 14.332 14.332 0 0 0-28.536 0 1.238 1.238 0 0 0 1.229 1.354z" class="cls-3" data-name="Path 182" transform="translate(-1130.501 -186.659)"/>
            </g>
        </g>
        <circle id="Ellipse_47" cx="9.782" cy="9.782" r="9.782" class="cls-5" data-name="Ellipse 47" transform="translate(1248.316 260.696)"/>
        <circle id="Ellipse_50" cx="9.782" cy="9.782" r="9.782" class="cls-6" data-name="Ellipse 50" transform="translate(1332.008 432.429)"/>
        <circle id="Ellipse_56" cx="9.782" cy="9.782" r="9.782" class="cls-6" data-name="Ellipse 56" transform="translate(1164.623 500.904)"/>
        <circle id="Ellipse_57" cx="9.782" cy="9.782" r="9.782" class="cls-6" data-name="Ellipse 57" transform="translate(1059.193 607.422)"/>
        <circle id="Ellipse_64" cx="9.782" cy="9.782" r="9.782" class="cls-6" data-name="Ellipse 64" transform="translate(995.065 748.72)"/>
        <circle id="Ellipse_67" cx="9.782" cy="9.782" r="9.782" class="cls-6" data-name="Ellipse 67" transform="translate(521.171 871.542)"/>
        <text id="بث_مباشر" class="cls-7" data-name="بث مباشر" transform="translate(1282.97 239.047)">
            <tspan x="-89.355" y="0">بث مباشر</tspan>
        </text>
        <text id="محاضرات_مسجلة" class="cls-8" data-name="محاضرات مسجلة" transform="translate(1432.788 485.863)">
            <tspan x="-41.48" y="0">محاضرات</tspan><tspan x="-34.38" y="30">مسجلة</tspan>
        </text>
        <g id="recorded_videos" transform="translate(1382.006 380.91)">
            <g id="Group_130" class="cls-9" data-name="Group 130" transform="translate(4.956)">
                <g id="Group_129" data-name="Group 129">
                    <path id="Path_183" d="M1172.187 384.843a.525.525 0 0 0-.4-.184h-102.934a.525.525 0 0 0-.4.184.531.531 0 0 0-.123.423c.015.1 1.567 9.627 13.618 9.627h76.744c12.05 0 13.6-9.531 13.618-9.627a.531.531 0 0 0-.123-.423zm-44.125 6.712h-15.483v-3.56h15.483z" class="cls-2" data-name="Path 183" transform="translate(-1068.325 -326.595)"/>
                    <path id="Path_184" d="M1078.819 385.6h81.55a2.137 2.137 0 0 0 2.135-2.136v-50.091a2.137 2.137 0 0 0-2.135-2.135h-81.55a2.136 2.136 0 0 0-2.136 2.135v50.088a2.137 2.137 0 0 0 2.136 2.139zm3.08-48.14h75.388v41.921H1081.9z" class="cls-2" data-name="Path 184" transform="translate(-1067.599 -331.238)"/>
                </g>
            </g>
            <g id="Group_131" data-name="Group 131" transform="translate(43.471 12.427)">
                <circle id="Ellipse_48" cx="6.895" cy="6.895" r="6.895" class="cls-4" data-name="Ellipse 48" transform="translate(6.585)"/>
                <path id="Path_185" d="M1131.793 372.506a1.171 1.171 0 0 0 1.162-1.28 13.536 13.536 0 0 0-26.95 0 1.169 1.169 0 0 0 1.161 1.28z" class="cls-4" data-name="Path 185" transform="translate(-1105.999 -340.839)"/>
            </g>
            <g id="Group_132" data-name="Group 132" transform="translate(0 32.588)">
                <circle id="Ellipse_49" cx="9.655" cy="9.655" r="9.655" class="cls-3" data-name="Ellipse 49" transform="translate(9.222)"/>
                <path id="Path_186" d="M1099.885 403.532a1.638 1.638 0 0 0 1.626-1.791 18.954 18.954 0 0 0-37.739 0 1.639 1.639 0 0 0 1.626 1.791z" class="cls-3" data-name="Path 186" transform="translate(-1063.765 -359.19)"/>
            </g>
        </g>
        <g id="tests" transform="translate(1109.191 362.163)">
            <g id="Group_133" class="cls-10" data-name="Group 133" transform="translate(25.074 34.522)">
                <circle id="Ellipse_51" cx="9.655" cy="9.655" r="9.655" class="cls-5" data-name="Ellipse 51" transform="translate(9.222)"/>
                <path id="Path_187" d="M1005.885 511.032a1.638 1.638 0 0 0 1.626-1.791 18.954 18.954 0 0 0-37.739 0 1.639 1.639 0 0 0 1.626 1.791z" class="cls-5" data-name="Path 187" transform="translate(-969.765 -466.69)"/>
            </g>
            <g id="Group_140" data-name="Group 140">
                <g id="Group_135" class="cls-10" data-name="Group 135" transform="translate(47.824)">
                    <circle id="Ellipse_52" cx="11.435" cy="11.435" r="11.435" class="cls-5" data-name="Ellipse 52"/>
                    <g id="Group_134" data-name="Group 134" transform="translate(7.385 7.385)">
                        <path id="Line_7" d="M8.1 0L0 8.1" class="cls-11" data-name="Line 7"/>
                        <path id="Line_8" d="M0 0l8.1 8.1" class="cls-11" data-name="Line 8"/>
                    </g>
                </g>
                <g id="Group_138" data-name="Group 138" transform="translate(65.513 30.276)">
                    <g id="Group_137" data-name="Group 137">
                        <circle id="Ellipse_54" cx="14.684" cy="14.684" r="14.684" class="cls-3" data-name="Ellipse 54"/>
                        <path id="Path_188" d="M1015.1 460.515l4.583 4.583 9.421-9.421" class="cls-12" data-name="Path 188" transform="translate(-1006.614 -444.894)"/>
                    </g>
                </g>
                <g id="Group_143" data-name="Group 143" transform="translate(0 30.252)">
                    <g id="Group_136" data-name="Group 136">
                        <circle id="Ellipse_53" cx="11.435" cy="11.435" r="11.435" class="cls-4" data-name="Ellipse 53"/>
                    </g>
                    <text id="_" class="cls-13" data-name="?" transform="translate(8.025 17.668)">
                        <tspan x="0" y="0">?</tspan>
                    </text>
                </g>
                <g id="Group_142" data-name="Group 142" transform="translate(18.478 3.53)">
                    <g id="Group_139" data-name="Group 139">
                        <circle id="Ellipse_55" cx="9.537" cy="9.537" r="9.537" class="cls-14" data-name="Ellipse 55"/>
                    </g>
                    <text id="_2" class="cls-15" data-name="!" transform="translate(6.608 15.261)">
                        <tspan x="0" y="0">!</tspan>
                    </text>
                </g>
            </g>
        </g>
        <text id="اختبر_نفسك" class="cls-8" data-name="اختبر نفسك" transform="translate(1152.322 466.299)">
            <tspan x="-54.13" y="0">اختبر نفسك</tspan>
        </text>
        <text id="مناقشات" class="cls-8" transform="translate(976.198 624.988)">
            <tspan x="-42" y="0">مناقشات</tspan>
        </text>
        <text id="تحديات" class="cls-8" transform="translate(1008.501 889.108)">
            <tspan x="-33.16" y="0">تحديات</tspan>
        </text>
        <g id="questions" transform="translate(916.242 519.383)">
            <g id="Group_144" class="cls-9" data-name="Group 144" transform="translate(31.909 16.708)">
                <path id="Path_189" d="M891.03 552.213a27.618 27.618 0 1 0 27.618 27.618 27.594 27.594 0 0 0-27.618-27.618zm-8.336 3.762a39.6 39.6 0 0 0-3.74 6.461h-6.268a25.046 25.046 0 0 1 10.008-6.461zm-11.985 8.811h7.252a41.536 41.536 0 0 0-2.78 13.87h-9.387a25.192 25.192 0 0 1 4.915-13.87zm0 30.092a25.2 25.2 0 0 1-4.915-13.872h9.387a41.344 41.344 0 0 0 2.824 13.872zm1.977 2.348h6.325a42.481 42.481 0 0 0 3.728 6.485 25.131 25.131 0 0 1-10.053-6.485zm17.17 7.851a27.036 27.036 0 0 1-3.468-.4 39.96 39.96 0 0 1-4.779-7.443h8.247zm0-10.2h-9.319a39.273 39.273 0 0 1-3.005-13.872h12.324zm0-16.222h-12.324a39.556 39.556 0 0 1 2.983-13.87h9.341zm.012-16.22h-8.281a38.593 38.593 0 0 1 4.8-7.445 25.023 25.023 0 0 1 3.48-.394zm21.484 2.35a25.069 25.069 0 0 1 4.913 13.87h-9.386a41.323 41.323 0 0 0-2.825-13.87zm-1.977-2.35h-6.325a41.51 41.51 0 0 0-3.74-6.484 25.082 25.082 0 0 1 10.065 6.485zm-17.17-7.839a26.751 26.751 0 0 1 3.468.394 39.938 39.938 0 0 1 4.777 7.445h-8.245zm0 10.189h9.318a39.272 39.272 0 0 1 3.005 13.87h-12.323zm0 16.22h12.324a39.6 39.6 0 0 1-2.983 13.872h-9.341v-13.871zm-.012 24.061v-7.841h8.279a38.537 38.537 0 0 1-4.8 7.445 25.262 25.262 0 0 1-3.48.4zm7.117-1.356a41.455 41.455 0 0 0 3.716-6.485h6.36a25.212 25.212 0 0 1-10.075 6.485zm4.71-8.833a43.406 43.406 0 0 0 2.847-13.872h9.41a25.2 25.2 0 0 1-4.913 13.872z" class="cls-16" data-name="Path 189" transform="translate(-863.412 -552.213)"/>
            </g>
            <g id="Path_594" class="cls-17" data-name="Path 594">
                <path d="M695.154 220.472c-3.068 0-6.104-.76-8.795-2.201l-7.177 1.802-.81.204.204-.81 1.63-6.494a18.586 18.586 0 0 1-3.705-11.153 18.589 18.589 0 0 1 5.463-13.19 18.59 18.59 0 0 1 13.19-5.463 18.59 18.59 0 0 1 13.19 5.463 18.59 18.59 0 0 1 5.463 13.19 18.59 18.59 0 0 1-5.463 13.19 18.59 18.59 0 0 1-13.19 5.462z" class="cls-32" transform="translate(-604.291 -179.277)"/>
                <path d="M695.154 183.667c-10.026 0-18.153 8.127-18.153 18.153 0 4.155 1.4 7.982 3.749 11.042l-1.69 6.727 7.366-1.85a18.067 18.067 0 0 0 8.728 2.233c10.025 0 18.153-8.127 18.153-18.152 0-10.026-8.128-18.153-18.153-18.153m0-1a19.087 19.087 0 0 1 13.543 5.61 19.086 19.086 0 0 1 5.61 13.543 19.086 19.086 0 0 1-5.61 13.543 19.087 19.087 0 0 1-13.543 5.61c-3.085 0-6.139-.75-8.859-2.17l-6.99 1.755-1.621.407.407-1.62 1.573-6.265a19.087 19.087 0 0 1-3.663-11.26 19.086 19.086 0 0 1 5.61-13.543 19.088 19.088 0 0 1 13.543-5.61z" class="cls-33" transform="translate(-604.291 -179.277)"/>
            </g>
            <g id="Group_551" data-name="Group 551" transform="translate(83.768 14.097)">
                <circle id="Ellipse_51-2" cx="3.648" cy="3.648" r="3.648" class="cls-18" data-name="Ellipse 51" transform="translate(3.484)"/>
                <path id="Path_187-2" d="M983.411 499.24a.619.619 0 0 0 .614-.677 7.161 7.161 0 0 0-14.257 0 .619.619 0 0 0 .614.677z" class="cls-18" data-name="Path 187" transform="translate(-969.765 -482.488)"/>
            </g>
            <g id="Group_553" data-name="Group 553" transform="translate(17.71 48.02)">
                <g id="Path_595" class="cls-19" data-name="Path 595">
                    <path d="M691.339 212.842a14.74 14.74 0 0 1-10.492-4.346 14.74 14.74 0 0 1-4.346-10.491 14.74 14.74 0 0 1 4.346-10.492 14.74 14.74 0 0 1 10.492-4.346c2.426 0 4.828.598 6.96 1.732l5.63-1.414.81-.203-.204.81-1.276 5.08a14.692 14.692 0 0 1 2.918 8.833 14.74 14.74 0 0 1-4.346 10.491 14.74 14.74 0 0 1-10.492 4.346z" class="cls-32" transform="translate(-677.001 -183.667)"/>
                    <path d="M691.339 212.342c7.919 0 14.338-6.419 14.338-14.337 0-3.283-1.106-6.305-2.961-8.722l1.334-5.313-5.818 1.461a14.27 14.27 0 0 0-6.893-1.764c-7.919 0-14.338 6.42-14.338 14.338 0 7.918 6.42 14.337 14.338 14.337m0 1a15.237 15.237 0 0 1-10.846-4.492 15.237 15.237 0 0 1-4.492-10.845c0-4.097 1.595-7.949 4.492-10.846a15.237 15.237 0 0 1 10.846-4.492c2.443 0 4.863.587 7.023 1.7l5.444-1.367 1.62-.407-.406 1.62-1.219 4.854a15.185 15.185 0 0 1 2.876 8.938c0 4.097-1.596 7.948-4.493 10.845a15.238 15.238 0 0 1-10.845 4.492z" class="cls-33" transform="translate(-677.001 -183.667)"/>
                </g>
                <g id="Group_552" data-name="Group 552" transform="translate(8.676 7.668)">
                    <ellipse id="Ellipse_51-3" cx="2.881" cy="2.881" class="cls-18" data-name="Ellipse 51" rx="2.881" ry="2.881" transform="translate(2.751)"/>
                    <path id="Path_187-3" d="M970.253 497.735a.489.489 0 0 1-.485-.534 5.656 5.656 0 0 1 11.261 0 .489.489 0 0 1-.485.534z" class="cls-18" data-name="Path 187" transform="translate(-969.765 -484.504)"/>
                </g>
            </g>
        </g>
        <g id="compatitions" transform="translate(921.155 787.416)">
            <g id="Group_155" data-name="Group 155" transform="translate(94.018)">
                <g id="Group_153" class="cls-9" data-name="Group 153">
                    <g id="Group_152" data-name="Group 152">
                        <path id="Path_192" d="M696.6 645.136l81.55 7.065a2.136 2.136 0 0 0 2.136-2.136v-63.894a2.136 2.136 0 0 0-2.136-2.136l-81.55 6.742a2.137 2.137 0 0 0-2.136 2.135V643a2.137 2.137 0 0 0 2.136 2.136zM699.685 597l75.389-6.741v55.727l-75.389-7.065z" class="cls-16" data-name="Path 192" transform="translate(-694.469 -584.035)"/>
                    </g>
                </g>
                <g id="Group_154" data-name="Group 154" transform="translate(29.748 18.077)">
                    <circle id="Ellipse_65" cx="6.706" cy="6.706" r="6.706" class="cls-20" data-name="Ellipse 65" transform="translate(6.458)"/>
                    <path id="Path_193" d="M748.165 632.136c0-7.27-5.893-15.245-13.164-15.245a13.163 13.163 0 0 0-13.164 13.162z" class="cls-20" data-name="Path 193" transform="translate(-721.838 -599.257)"/>
                </g>
            </g>
            <g id="Group_159" data-name="Group 159">
                <g id="Group_157" class="cls-9" data-name="Group 157">
                    <g id="Group_156" data-name="Group 156">
                        <path id="Path_194" d="M693.791 643v-50.088a2.136 2.136 0 0 0-2.136-2.135l-81.55-6.742a2.137 2.137 0 0 0-2.136 2.136v63.894a2.137 2.137 0 0 0 2.131 2.135l81.55-7.065a2.137 2.137 0 0 0 2.141-2.135zm-5.216-4.084l-75.389 7.065v-55.727L688.575 597z" class="cls-16" data-name="Path 194" transform="translate(-607.969 -584.035)"/>
                    </g>
                </g>
                <g id="Group_158" data-name="Group 158" transform="translate(29.748 18.077)">
                    <circle id="Ellipse_66" cx="6.706" cy="6.706" r="6.706" class="cls-3" data-name="Ellipse 66" transform="translate(6.457)"/>
                    <path id="Path_195" d="M635.338 632.136c0-7.27 5.893-15.245 13.163-15.245a13.163 13.163 0 0 1 13.164 13.162z" class="cls-3" data-name="Path 195" transform="translate(-635.338 -599.257)"/>
                </g>
            </g>
            <g id="Group_427" data-name="Group 427" transform="translate(61.233 14.553)">
                <g id="Group_160" data-name="Group 160">
                    <path id="Path_196" d="M714.688 600.075h-34.067v5.005h-11.655v7.42c0 5.333 5.229 9.672 11.655 9.672h.2c1.075 5.8 6.4 10.418 13.235 11.638v8.01h-4.18a2.156 2.156 0 0 0-2.328 1.932v2.548h-3.568v9.073h27.354V646.3h-3.566v-2.542a2.158 2.158 0 0 0-2.328-1.932h-4.181v-8.01c6.85-1.22 12.16-5.854 13.235-11.638h.2c6.427 0 11.655-4.339 11.655-9.672v-7.426H714.7v-5.005zm-34.067 17.209c-3.172 0-5.759-2.148-5.759-4.78v-2.531h5.759zm39.814-7.311v2.527c0 2.633-2.574 4.78-5.747 4.78v-7.311z" class="cls-18" data-name="Path 196" transform="translate(-668.966 -600.075)"/>
                </g>
            </g>
            <g id="Group_161" data-name="Group 161" transform="translate(67.298 17.434)">
                <g id="Group_160-2" data-name="Group 160">
                    <path id="Path_196-2" d="M704.931 600.075h-26.8v4.744h-9.168v7.037a9.179 9.179 0 0 0 9.168 9.168h.161a13.4 13.4 0 0 0 10.41 11.032v7.593h-3.288a1.83 1.83 0 0 0-1.831 1.831v2.41h-2.803v8.6h21.52v-8.6h-2.805v-2.41a1.831 1.831 0 0 0-1.831-1.831h-3.294v-7.593a13.4 13.4 0 0 0 10.411-11.032h.161a9.179 9.179 0 0 0 9.168-9.168v-7.037h-9.168v-4.744zm-26.8 16.312a4.54 4.54 0 0 1-4.53-4.531v-2.4h4.53zm31.317-6.93v2.4a4.531 4.531 0 0 1-4.52 4.531v-6.93z" class="cls-4" data-name="Path 196" transform="translate(-668.966 -600.075)"/>
                </g>
            </g>
        </g>
        <g id="goo" transform="translate(444 771.112)">
            <g id="Group_162" data-name="Group 162">
                <path id="Path_197" d="M474.39 703.569a2.96 2.96 0 1 0 0-4.187 2.964 2.964 0 0 0 0 4.187z" class="cls-21" data-name="Path 197" transform="translate(-447.082 -671.82)"/>
                <path id="Path_198" d="M456.916 698.894a53.259 53.259 0 0 0 7.077 12.569l7.177 29.344a2.583 2.583 0 0 0 4.338 1.214l11.118-11.121a31 31 0 0 0 3.971 1.821l17.328-17.321a30.626 30.626 0 0 0-1.821-3.971l11.515-11.516a2.585 2.585 0 0 0-1.212-4.338l-30.727-7.515a53.917 53.917 0 0 0-11.586-6.34zm19.143 2.216a8.127 8.127 0 1 1 0 11.5 8.142 8.142 0 0 1 0-11.5z" class="cls-22" data-name="Path 198" transform="translate(-452.405 -677.205)"/>
                <path id="Path_199" d="M469.778 680.91c-.342-.1-.68-.2-1.008-.3a62.2 62.2 0 0 0-12.55-2.311 2.584 2.584 0 0 0-2.716 2.718 62.165 62.165 0 0 0 2.308 12.549c.094.329.194.667.3 1.009z" class="cls-4" data-name="Path 199" transform="translate(-453.5 -678.3)"/>
                <path id="Path_200" d="M485.6 726.639l2.063 4.856a2.582 2.582 0 0 0 1.886 1.525 2.523 2.523 0 0 0 .494.049 2.584 2.584 0 0 0 1.828-.758l15.638-15.638a2.585 2.585 0 0 0-.816-4.207l-4.857-2.063z" class="cls-22" data-name="Path 200" transform="translate(-443.21 -668.009)"/>
                <path id="Path_201" d="M499.438 728.19l20.784 20.783a2.585 2.585 0 1 0 3.655-3.655l-20.784-20.784a2.585 2.585 0 0 0-3.655 3.657z" class="cls-20" data-name="Path 201" transform="translate(-439.018 -663.722)"/>
                <path id="Path_202" d="M521.027 734.653a2.585 2.585 0 0 0 0-3.655l-12.2-12.2a2.585 2.585 0 0 0-3.655 3.657l12.2 12.2a2.584 2.584 0 0 0 3.657 0z" class="cls-20" data-name="Path 202" transform="translate(-437.179 -665.56)"/>
                <path id="Path_203" d="M493.7 730.269a2.583 2.583 0 0 0 0 3.655l12.2 12.2a2.585 2.585 0 1 0 3.655-3.655l-12.2-12.2a2.583 2.583 0 0 0-3.655 0z" class="cls-20" data-name="Path 203" transform="translate(-440.856 -661.884)"/>
            </g>
        </g>
        <g id="starting" transform="translate(1388.45 129.267)">
            <g id="Group_386" class="cls-23" data-name="Group 386" transform="translate(79.72 33.464)">
                <path id="Path_497" d="M1522.8 989.228a25.751 25.751 0 1 1 25.8-25.751 25.8 25.8 0 0 1-25.8 25.751zm0-49.435a23.684 23.684 0 1 0 23.726 23.683 23.731 23.731 0 0 0-23.726-23.683z" class="cls-5" data-name="Path 497" transform="translate(-1497.007 -937.726)"/>
            </g>
            <g id="Group_387" class="cls-24" data-name="Group 387" transform="translate(82.33 36.069)">
                <path id="Path_498" d="M1522.7 986.524a23.146 23.146 0 1 1 23.187-23.146 23.193 23.193 0 0 1-23.187 23.146zm0-45.258a22.113 22.113 0 1 0 22.152 22.112 22.157 22.157 0 0 0-22.152-22.112z" class="cls-25" data-name="Path 498" transform="translate(-1499.518 -940.233)"/>
            </g>
            <g id="Group_388" class="cls-23" data-name="Group 388" transform="translate(0 33.464)">
                <path id="Path_499" d="M1446.094 989.228a25.751 25.751 0 1 1 25.8-25.751 25.8 25.8 0 0 1-25.8 25.751zm0-49.435a23.684 23.684 0 1 0 23.726 23.683 23.731 23.731 0 0 0-23.726-23.683z" class="cls-5" data-name="Path 499" transform="translate(-1420.297 -937.726)"/>
            </g>
            <g id="Group_389" class="cls-24" data-name="Group 389" transform="translate(2.611 36.069)">
                <path id="Path_500" d="M1446 986.524a23.146 23.146 0 1 1 23.187-23.146A23.192 23.192 0 0 1 1446 986.524zm0-45.258a22.113 22.113 0 1 0 22.151 22.112A22.156 22.156 0 0 0 1446 941.266z" class="cls-26" data-name="Path 500" transform="translate(-1422.809 -940.233)"/>
            </g>
            <path id="Path_501" d="M1444.183 965.69a1.384 1.384 0 0 0 1.953.025c7.086-6.9 10.243-17.9 10.374-18.368l.011-.045 2.853-11.623 31.033 33.26c.013.015.03.027.045.041a1.21 1.21 0 0 0 .1.09c.022.018.041.037.064.054l.038.023c.038.025.08.047.121.069s.053.031.081.044l.032.012a1.33 1.33 0 0 0 .154.049c.023.006.044.017.067.022h.012l.021.005a1.423 1.423 0 0 0 .267.027h.011c.042 0 .083 0 .125-.006l33.475-3.273.025-.005a1.291 1.291 0 0 0 .249-.05 1.374 1.374 0 0 0 .221-.094c.027-.013.051-.029.076-.045s.055-.029.081-.047.026-.024.039-.035a1.54 1.54 0 0 0 .2-.187 1.317 1.317 0 0 0 .082-.1c.026-.037.053-.074.075-.112s.04-.077.059-.116.037-.081.052-.123a1.288 1.288 0 0 0 .035-.128 1.131 1.131 0 0 0 .027-.132 1.31 1.31 0 0 0 .01-.126 1.408 1.408 0 0 0 0-.151v-.052c0-.018-.01-.043-.013-.065a1.253 1.253 0 0 0-.03-.151 1.403 1.403 0 0 0-.038-.12 1.265 1.265 0 0 0-.054-.129 1.81 1.81 0 0 0-.068-.122c-.014-.021-.022-.045-.037-.065l-24.414-35.01 2.943-13.1a1.38 1.38 0 0 0-2.694-.6l-7.349 32.7c-19-.631-31.4-21-32.52-22.913l2.122-8.646a1.377 1.377 0 0 0-.542-1.452l-5.349-3.789a2.9 2.9 0 0 1-.994-1.158c.132-.168 1.336-1.356 8.822-1.356a1.378 1.378 0 1 0 0-2.756c-7.2 0-10.734 1.011-11.462 3.28-.707 2.206 1.75 4.034 2.033 4.235l4.587 3.25-3.875 15.789a1.338 1.338 0 0 0-.061.251l-3.427 13.958c-.151.519-3.224 10.878-9.637 17.121a1.376 1.376 0 0 0-.011 1.945zm56.608-33.11l21.623 31.007-29.232 2.857zm-40.631-.1l.918-3.739a63.847 63.847 0 0 0 7.974 9.67c7.666 7.6 16.225 11.806 24.847 12.249l-3.256 14.491z" class="cls-3" data-name="Path 501" transform="translate(-1419.375 -905.513)"/>
            <g id="Group_390" data-name="Group 390" transform="translate(73.077 4.267)">
                <path id="Path_502" d="M1492.339 916.522h11.62c4.543 0 7.335-4.029 7.452-4.2a1.724 1.724 0 0 0-2.851-1.941c-.038.053-1.918 2.7-4.6 2.7h-11.62a1.723 1.723 0 1 0 0 3.445z" class="cls-27" data-name="Path 502" transform="translate(-1490.614 -909.632)"/>
            </g>
            <path id="Path_503" d="M1487.735 962.94l-2.735-8.905 1.98-.606 2.736 8.905h.084a3.8 3.8 0 0 1 2.064 7l2.737 8.905-1.98.606-2.736-8.906h-.084a3.8 3.8 0 0 1-2.064-7z" class="cls-28" data-name="Path 503" transform="translate(-1417.758 -903.646)"/>
            <g id="Group_391" data-name="Group 391" transform="translate(63.586 48.88)">
                <path id="Path_504" d="M1482.69 954.971h6.875a1.206 1.206 0 1 0 0-2.411h-6.875a1.206 1.206 0 1 0 0 2.411z" class="cls-29" data-name="Path 504" transform="translate(-1481.482 -952.56)"/>
            </g>
            <g id="Group_392" data-name="Group 392" transform="translate(71.206 73.684)">
                <path id="Path_505" d="M1490.022 978.838h6.875a1.206 1.206 0 1 0 0-2.411h-6.875a1.206 1.206 0 1 0 0 2.411z" class="cls-29" data-name="Path 505" transform="translate(-1488.814 -976.427)"/>
            </g>
            <g id="Group_393" data-name="Group 393" transform="translate(64.276 54.736)">
                <path id="Path_506" d="M1482.146 965.947a7.766 7.766 0 0 0 10 7.421h.006s31.793-7.518 31.844-7.553a3.8 3.8 0 0 0-.983-7.474l-33.1-.144a7.767 7.767 0 0 0-7.767 7.75zm1.035 0a6.731 6.731 0 0 1 6.73-6.718 6.718 6.718 0 1 1-6.73 6.718z" class="cls-4" data-name="Path 506" transform="translate(-1482.146 -958.195)"/>
            </g>
            <path id="Path_507" d="M1495.641 961.493a.692.692 0 0 0 .763-.618 26.523 26.523 0 0 1 26.477-23.8c.646 0 1.286.031 1.921.076l-2.267 25.933v.02a.351.351 0 0 0 .007.074.417.417 0 0 0 .015.059.442.442 0 0 0 .031.057.452.452 0 0 0 .041.056c.005.005.007.012.013.018a.39.39 0 0 0 .04.025.355.355 0 0 0 .054.033.315.315 0 0 0 .074.022.3.3 0 0 0 .038.011h.031a.346.346 0 0 0 .131-.026.312.312 0 0 0 .03-.02.327.327 0 0 0 .082-.057l.011-.007 17.856-19.153a26.48 26.48 0 0 1 8.509 19.452.7.7 0 0 0 1.391 0 28.015 28.015 0 0 0-55.871-2.921.694.694 0 0 0 .623.766zm29.853-24.285a26.542 26.542 0 0 1 14.983 6.527l-17.162 18.408z" class="cls-3" data-name="Path 507" transform="translate(-1417.365 -904.342)"/>
            <g id="Group_394" class="cls-23" data-name="Group 394" transform="translate(101.337 54.88)">
                <path id="Path_508" d="M1517.807 962.138a3.81 3.81 0 1 0 3.81-3.8 3.807 3.807 0 0 0-3.81 3.8z" class="cls-5" data-name="Path 508" transform="translate(-1517.807 -958.334)"/>
            </g>
            <g id="Group_395" data-name="Group 395" transform="translate(44.605)">
                <path id="Path_509" d="M1464.943 908.971h9.406a1.723 1.723 0 1 0 0-3.445h-9.406a1.723 1.723 0 1 0 0 3.445z" class="cls-30" data-name="Path 509" transform="translate(-1463.218 -905.526)"/>
            </g>
            <path id="Path_510" d="M1466.071 947.244l-21.134 16.041c-.01.007-.016.019-.025.027a.375.375 0 0 0-.046.053.25.25 0 0 0-.031.056.258.258 0 0 0-.021.061.314.314 0 0 0-.008.069c0 .013-.005.024 0 .036s.006.018.007.028a.44.44 0 0 0 .018.059.379.379 0 0 0 .031.065.193.193 0 0 0 .013.026c0 .007.013.009.018.016a.382.382 0 0 0 .082.068c.012.006.022.016.034.021a.337.337 0 0 0 .139.032h.03l26.463-2.265c.046.635.077 1.274.077 1.921a.69.69 0 0 0 1.38 0 27.957 27.957 0 0 0-27.95-27.9.689.689 0 1 0 0 1.378 26.549 26.549 0 0 1 20.923 10.208zm.422.545a26.348 26.348 0 0 1 5.093 13.161l-25.285 2.165z" class="cls-3" data-name="Path 510" transform="translate(-1419.349 -904.344)"/>
        </g>
        <text id="نبدأ_رحلة_النجاح" class="cls-31" data-name="نبدأ رحلة النجاح" transform="translate(520.493 937.871)">
            <tspan x="-95.76" y="0">نبدأ رحلة النجاح</tspan>
        </text>
    </g>
</svg>
