<svg id="Layer_1" data-name="Layer 1" xmlns="http://www.w3.org/2000/svg" xmlns:xlink="http://www.w3.org/1999/xlink" viewBox="0 0 89.42 118.38"><defs><style>.cls-1{fill:none;}.cls-2{clip-path:url(#clip-path);}.cls-3{fill:#a8ebef;}.cls-4{fill:#816cc8;}</style><clipPath id="clip-path"><rect class="cls-1" width="89.42" height="118.38"/></clipPath></defs><g id="Group_3810" data-name="Group 3810"><g id="Group_3809" data-name="Group 3809"><g class="cls-2"><g id="Group_3808" data-name="Group 3808"><path id="Path_6348" data-name="Path 6348" class="cls-3" d="M89.42,5.8A5.8,5.8,0,0,0,83.63,0H5.79A5.8,5.8,0,0,0,0,5.8H0V68H89.42ZM72.16,31.88,59.51,41.07a2.73,2.73,0,0,0-1,3.06l4.7,14.47.13.4a2.74,2.74,0,0,1-4.22,3.06L54.37,58.6l-7.89-5.73a2.73,2.73,0,0,0-3.22,0L35.37,58.6l-4.76,3.46a2.72,2.72,0,0,1-3.66-.4A2.69,2.69,0,0,1,26.4,59l4.83-14.87a2.73,2.73,0,0,0-1-3.06L17.59,31.88a2.74,2.74,0,0,1,1.61-5H34.83A2.72,2.72,0,0,0,37.43,25l4.83-14.86a2.74,2.74,0,0,1,5.21,0L52.31,25a2.72,2.72,0,0,0,2.6,1.89H70.55a2.73,2.73,0,0,1,2.73,2.75,2.76,2.76,0,0,1-1.12,2.21"/><path id="Path_6349" data-name="Path 6349" class="cls-4" d="M5.79,118.38H83.63a5.79,5.79,0,0,0,5.79-5.79V73.14H0v39.45a5.79,5.79,0,0,0,5.79,5.79m22.82-37.6H63.92c1,0,1.71,1.09,1.71,2.44s-.76,2.44-1.71,2.44H28.6c-.94,0-1.7-1.1-1.7-2.44s.77-2.44,1.7-2.44m0,17H63.92c1,0,1.71,1.1,1.71,2.44s-.76,2.45-1.71,2.45H28.6c-.94,0-1.7-1.1-1.7-2.45s.77-2.44,1.7-2.44"/></g></g></g></g></svg>