<svg id="Layer_1" data-name="Layer 1" xmlns="http://www.w3.org/2000/svg" viewBox="0 0 384 114.19"><defs><style>.cls-1{fill:#fff;}.cls-2{fill:#381b71;}</style></defs><g id="Group_4410" data-name="Group 4410"><g id="Group_4370" data-name="Group 4370"><path id="Path_6689" data-name="Path 6689" class="cls-1" d="M63.1,73.27c0,23.12-10.52,34.79-32.59,34.79C12,108.06,0,98.35,0,75.24A79.47,79.47,0,0,1,2.77,54.55l15.72-2.89a83.73,83.73,0,0,0-3.24,22.19c0,17.68,8.32,22.3,16.41,22.3,10.06,0,16.18-5.31,16.18-22v-47H63.1ZM22.53,33.64a8,8,0,1,1,8,8,7.92,7.92,0,0,1-8-7.86v-.11Z"/><path id="Path_6690" data-name="Path 6690" class="cls-1" d="M77.08,109.1,78,96.62a97.45,97.45,0,0,0,18,2c12,0,20-4.5,20-15.37V81.48h-9c-22.54,0-31-10.4-31-26.81,0-15.14,9.36-29,30.62-29a74.33,74.33,0,0,1,24.15,4.05V69.46h11.44v12H130.81v.23c0,16-10.28,28.89-36.17,28.89A121.55,121.55,0,0,1,77.08,109.1ZM116,39.76a28.1,28.1,0,0,0-11-2.08c-8.67,0-13.75,6.59-13.75,15.6,0,10.52,5.2,16.18,17.33,16.18H116Z"/><path id="Path_6691" data-name="Path 6691" class="cls-1" d="M140.4,69.46h21.73V27.16h15.25v42.3h11.44v12H140.4Zm9.82,37.21A7.68,7.68,0,0,1,142.59,99a.76.76,0,0,1,0-.15,7.69,7.69,0,1,1,15.37-.2v.2a7.78,7.78,0,0,1-7.68,7.86Zm19.19,0A7.66,7.66,0,0,1,161.78,99v-.15A7.63,7.63,0,1,1,177,98.67a.71.71,0,0,0,0,.14,7.73,7.73,0,0,1-7.62,7.86Z"/><path id="Path_6692" data-name="Path 6692" class="cls-1" d="M187,69.46H201.3V0h15.25V69.46h11.67v12H187Z"/><path id="Path_6693" data-name="Path 6693" class="cls-1" d="M267.17,81.48c-13.64,0-20.34-3.24-23.81-8.9-2.89,6-8.32,8.9-15.25,8.9h-1.74v-12h2.32c5.54,0,8.66-3.35,8.66-13.87,0-16.52,10.06-29.93,29.47-29.93,18.6,0,26.69,10.64,26.69,27.5V81.48ZM278.61,54.9c0-12.13-4.39-17.22-12.83-17.22s-13.4,6.7-13.4,16.53c0,10.17,4.39,15.25,16.29,15.25h9.94Z"/><path id="Path_6694" data-name="Path 6694" class="cls-1" d="M347.59,82.64a52.6,52.6,0,0,1-13-1.5l1.61-12.94a35.69,35.69,0,0,0,11.79,1.62c9.71,0,15.37-5,15.37-11.68,0-6.24-5-11-16.52-11a50.86,50.86,0,0,0-8.09.57V35.84c16.64.47,22.3-5,22.3-11.78,0-5.43-3.59-9.25-11-9.25a29.24,29.24,0,0,0-12.83,3.24L336,5.68A50.14,50.14,0,0,1,354,2.33c14.9,0,22.65,8,22.65,18.72,0,8.55-5,14.91-12.48,17.68L364,39c9.48,2.31,15.26,9.36,15.26,18.26C379.26,72.35,366.08,82.64,347.59,82.64Z"/></g><g id="Group_4377" data-name="Group 4377"><g id="Group_4371" data-name="Group 4371"><path id="Path_6695" data-name="Path 6695" class="cls-2" d="M34.83,45.21A8.3,8.3,0,0,1,26.44,37v-.18a8.39,8.39,0,1,1,8.39,8.39Zm0-15.95a7.58,7.58,0,0,0-7.56,7.56,7.47,7.47,0,0,0,7.4,7.55h.16a7.56,7.56,0,1,0,0-15.11Z"/></g><g id="Group_4372" data-name="Group 4372"><path id="Path_6696" data-name="Path 6696" class="cls-2" d="M34.83,111.66c-20.23,0-30.93-11.5-30.93-33.24a80.75,80.75,0,0,1,2.79-20.8.42.42,0,0,1,.33-.3l15.71-2.89a.41.41,0,0,1,.39.13.42.42,0,0,1,.09.4A83.3,83.3,0,0,0,20,77c0,18.09,8.7,21.89,16,21.89,10.9,0,15.76-6.64,15.76-21.54v-47a.41.41,0,0,1,.41-.42H67.42a.42.42,0,0,1,.42.42h0V76.46C67.83,100.14,57,111.66,34.83,111.66ZM7.43,58.1A79.68,79.68,0,0,0,4.74,78.42c0,21.2,10.4,32.4,30.09,32.4C56.47,110.82,67,99.58,67,76.46V30.77H52.58V77.38c0,15.47-5.12,22.37-16.6,22.37-7.68,0-16.83-3.94-16.83-22.72a83.42,83.42,0,0,1,3.08-21.65Z"/></g><g id="Group_4373" data-name="Group 4373"><path id="Path_6697" data-name="Path 6697" class="cls-2" d="M154.54,110.27a8.07,8.07,0,0,1-8-8.11V102a8.11,8.11,0,1,1,16.21-.17V102A8.24,8.24,0,0,1,154.54,110.27Zm0-15.72a7.33,7.33,0,0,0-7.2,7.44,7.24,7.24,0,0,0,7,7.44h.15a7.38,7.38,0,0,0,7.33-7.44,7.29,7.29,0,0,0-7.16-7.43Z"/></g><g id="Group_4374" data-name="Group 4374"><path id="Path_6698" data-name="Path 6698" class="cls-2" d="M173.73,110.27a8.08,8.08,0,0,1-8-8.11V102a8.18,8.18,0,0,1,8-8.27,8.07,8.07,0,0,1,8.05,8.1c0,.06,0,.12,0,.17A8.17,8.17,0,0,1,173.73,110.27Zm0-15.72a7.34,7.34,0,0,0-7.21,7.44,7.24,7.24,0,0,0,7,7.44h.16a7.34,7.34,0,0,0,7.21-7.44,7.25,7.25,0,0,0-7.06-7.43Z"/></g><g id="Group_4375" data-name="Group 4375"><path id="Path_6699" data-name="Path 6699" class="cls-2" d="M99,114.2a122.53,122.53,0,0,1-17.63-1.51.42.42,0,0,1-.35-.44l.93-12.48a.43.43,0,0,1,.16-.3.42.42,0,0,1,.34-.08,97.45,97.45,0,0,0,17.94,2c8.93,0,19.58-2.6,19.58-14.95V85.08h-8.6c-21.13,0-31.39-8.91-31.39-27.23,0-13.57,8.13-29.42,31-29.42a75.51,75.51,0,0,1,24.3,4.07.42.42,0,0,1,.27.39V72.22H166V30.35a.42.42,0,0,1,.42-.42H181.7a.43.43,0,0,1,.42.42V72.22H205.2v-69a.42.42,0,0,1,.42-.42h15.26a.41.41,0,0,1,.41.42v69H233c4.08,0,8.25-1.6,8.25-13.45,0-18.43,11.73-30.35,29.88-30.35,17.74,0,27.12,9.66,27.12,27.93V84.66a.43.43,0,0,1-.42.42H271.49c-12.43,0-19.8-2.62-23.76-8.48-2.92,5.5-8.14,8.43-15.13,8.47a0,0,0,0,1,0,0h-97C135.46,103.59,122.14,114.2,99,114.2Zm-17.12-2.27A121.28,121.28,0,0,0,99,113.36c22.72,0,35.76-10.38,35.76-28.47v-.23a.41.41,0,0,1,.41-.42h97.42c6.95,0,12-3,14.76-8.66a.4.4,0,0,1,.35-.23.38.38,0,0,1,.38.2c3.69,6,10.92,8.7,23.45,8.7h25.93V56.35c0-17.72-9.09-27.09-26.28-27.09-17.64,0-29,11.59-29,29.51,0,10-2.71,14.29-9.08,14.29H220.88a.42.42,0,0,1-.42-.42h0v-69H206v69a.42.42,0,0,1-.42.42H181.7a.42.42,0,0,1-.42-.42h0V30.76H166.87V72.64a.42.42,0,0,1-.42.42H135.13a.41.41,0,0,1-.41-.42h0V33.18A75.44,75.44,0,0,0,111,29.26c-22.29,0-30.2,15.4-30.2,28.59,0,17.76,10,26.39,30.55,26.39h9a.42.42,0,0,1,.42.42h0v1.73c0,10.33-7.06,15.79-20.41,15.79a97.74,97.74,0,0,1-17.65-1.88ZM282.93,73.06H273c-11.56,0-16.71-4.83-16.71-15.67,0-10.3,5.43-17,13.82-17,9,0,13.25,5.6,13.25,17.64V72.64a.42.42,0,0,1-.42.42ZM270.1,41.28c-8,0-13,6.17-13,16.11,0,10.4,4.74,14.83,15.87,14.83h9.52V58.08C282.51,46.62,278.57,41.28,270.1,41.28ZM120.34,73.06h-7.4c-11.94,0-17.75-5.43-17.75-16.6,0-9.73,5.56-16,14.17-16a28.12,28.12,0,0,1,11.16,2.12.41.41,0,0,1,.23.38v29.7a.41.41,0,0,1-.41.42Zm-11-31.78c-8.1,0-13.33,6-13.33,15.18,0,10.76,5.37,15.76,16.91,15.76h7v-29a28.45,28.45,0,0,0-10.56-1.94Z"/></g><g id="Group_4376" data-name="Group 4376"><path id="Path_6700" data-name="Path 6700" class="cls-2" d="M351.92,86.23a52.76,52.76,0,0,1-13.18-1.52.42.42,0,0,1-.3-.45l1.62-12.94a.44.44,0,0,1,.2-.31.41.41,0,0,1,.36,0,34.59,34.59,0,0,0,11.65,1.59c9.08,0,15-4.42,15-11.25s-5.87-10.56-16.11-10.56a51.17,51.17,0,0,0-8,.57.39.39,0,0,1-.34-.1.4.4,0,0,1-.15-.31V39a.42.42,0,0,1,.13-.3.42.42,0,0,1,.3-.12c9.28.25,15.71-1.3,19.12-4.62a9,9,0,0,0,2.75-6.75c0-5.61-3.85-8.83-10.56-8.83a28.56,28.56,0,0,0-12.64,3.2.41.41,0,0,1-.39,0,.38.38,0,0,1-.21-.32L339.94,8.89a.43.43,0,0,1,.26-.42,50.77,50.77,0,0,1,18.07-3.39c14.24,0,23.07,7.34,23.07,19.14A18.63,18.63,0,0,1,369.39,42c9,2.58,14.61,9.55,14.61,18.41C384,75.61,370.81,86.23,351.92,86.23ZM339.32,84a54.5,54.5,0,0,0,12.6,1.39c18.4,0,31.24-10.29,31.24-25,0-8.77-5.72-15.61-14.93-17.86a.39.39,0,0,1-.28-.23.41.41,0,0,1,0-.36l.12-.23a.43.43,0,0,1,.23-.21,17.89,17.89,0,0,0,12.2-17.28c0-11.29-8.52-18.3-22.23-18.3a49.84,49.84,0,0,0-17.46,3.2l1.07,11.46a29.13,29.13,0,0,1,12.46-3c7.14,0,11.4,3.61,11.4,9.66a9.84,9.84,0,0,1-3,7.36c-3.52,3.43-10,5.06-19.3,4.86v11a51.84,51.84,0,0,1,7.67-.51c10.77,0,16.95,4.15,16.95,11.4s-6.35,12.09-15.79,12.09A36.86,36.86,0,0,1,340.83,72Z"/></g></g></g></svg>