<svg id="Layer_1" data-name="Layer 1" xmlns="http://www.w3.org/2000/svg" xmlns:xlink="http://www.w3.org/1999/xlink" viewBox="0 0 137.19 117.27"><defs><style>.cls-1{fill:none;}.cls-2{clip-path:url(#clip-path);}.cls-3{fill:#a8ebef;}.cls-4{fill:#816cc8;}</style><clipPath id="clip-path"><rect class="cls-1" width="137.19" height="117.27"/></clipPath></defs><g id="Group_3815" data-name="Group 3815"><g id="Group_3814" data-name="Group 3814"><g class="cls-2"><g id="Group_3813" data-name="Group 3813"><path id="Path_6353" data-name="Path 6353" class="cls-3" d="M26.22,92.52A13.67,13.67,0,0,0,36,88.28a18.61,18.61,0,0,0,5.15-13.12c0-9.57-6.68-17.36-14.9-17.36S11.31,65.59,11.31,75.16a18.69,18.69,0,0,0,5.13,13.09,13.68,13.68,0,0,0,9.78,4.27m0-29.74c5.48,0,9.93,5.55,9.93,12.38S31.7,87.55,26.22,87.55,16.29,82,16.29,75.16s4.45-12.38,9.93-12.38"/><path id="Path_6354" data-name="Path 6354" class="cls-3" d="M30.54,114.89v-5.74a35.9,35.9,0,0,1,2.69-13.09,18,18,0,0,1-7,1.43A19,19,0,0,1,11.36,90C4.74,93.81,0,103.22,0,110.69v4.52a1.88,1.88,0,0,0,1.88,1.87h29a7.12,7.12,0,0,1-.34-2.2"/><path id="Path_6355" data-name="Path 6355" class="cls-4" d="M50.54,64.07a22.9,22.9,0,0,0,6.72,16.55,16.22,16.22,0,0,0,22.94.11l.09-.09A22.83,22.83,0,0,0,87,64.07c0-11.77-8.18-21.36-18.24-21.36S50.54,52.3,50.54,64.07M68.79,47.68c7.32,0,13.27,7.35,13.27,16.39s-6,16.39-13.27,16.39S55.51,73.1,55.51,64.07s6-16.39,13.28-16.39"/><path id="Path_6356" data-name="Path 6356" class="cls-4" d="M85.73,82.05a21.38,21.38,0,0,1-30,3.92,21.12,21.12,0,0,1-4-4,25,25,0,0,0-9.93,8.71c-3.89,5.55-6.3,12.52-6.3,18.52v5.74a2.39,2.39,0,0,0,2.39,2.38H99.29a2.38,2.38,0,0,0,2.38-2.38v-5.74c0-6-2.4-13-6.3-18.52a25.1,25.1,0,0,0-9.65-8.58"/><path id="Path_6357" data-name="Path 6357" class="cls-3" d="M121,88.28a18.61,18.61,0,0,0,5.15-13.12c0-9.57-6.68-17.36-14.9-17.36S96.37,65.59,96.37,75.16a18.62,18.62,0,0,0,5.12,13.09,13.35,13.35,0,0,0,18.86.71c.23-.22.46-.44.67-.68M101.34,75.16c0-6.83,4.46-12.38,9.94-12.38s9.93,5.55,9.93,12.38-4.46,12.39-9.93,12.39-9.94-5.56-9.94-12.39"/><path id="Path_6358" data-name="Path 6358" class="cls-3" d="M126,90.09a18.93,18.93,0,0,1-14.76,7.4,17.84,17.84,0,0,1-7.38-1.59,35.89,35.89,0,0,1,2.75,13.25v5.74a7.83,7.83,0,0,1-.34,2.2h29a1.89,1.89,0,0,0,1.88-1.88v-4.52c0-7.39-4.64-16.67-11.15-20.6"/><path id="Path_6359" data-name="Path 6359" class="cls-3" d="M10.28,37.83a.72.72,0,0,0,.53,1.25c4.78-.39,15.58-1.66,21.18-5.36H47.26A16.9,16.9,0,0,0,64.4,16.86,17.15,17.15,0,0,0,47.26-.28V0H23.32A16.86,16.86,0,0,0,15,31.5a24.46,24.46,0,0,1-4.68,6.33M21.87,9.41H48.21a2.49,2.49,0,1,1,.1,5H21.87a2.49,2.49,0,0,1-.1-5h.1m0,8.45H48.21a2.49,2.49,0,0,1,0,5H21.87a2.49,2.49,0,1,1-.1-5h.1"/><path id="Path_6360" data-name="Path 6360" class="cls-3" d="M126.39,33.39A16.85,16.85,0,0,0,111.88,8H87.94a16.86,16.86,0,0,0,0,33.72h15.27c5.6,3.7,16.4,5,21.18,5.35a.71.71,0,0,0,.53-1.24,24.63,24.63,0,0,1-4.68-6.33,17.07,17.07,0,0,0,6.16-6.07m-13.07-2.61H87a2.49,2.49,0,1,1,0-5h26.34a2.49,2.49,0,1,1,0,5m0-8.45H87a2.49,2.49,0,1,1-.1-5h26.44a2.49,2.49,0,0,1,.1,5h-.1"/></g></g></g></g></svg>