<svg xmlns="http://www.w3.org/2000/svg" width="437.461" height="485.323" viewBox="0 0 437.461 485.323">
    <defs>
        <style>
            .cls-1{fill:none;stroke:#e1dfdf;stroke-linecap:round;stroke-linejoin:round;stroke-width:3px;stroke-dasharray:15 15}.cls-2{fill:#bede8f}.cls-3{fill:#2bc3cc}.cls-4{fill:#6c53bf}.cls-5{fill:#2ccdd4}.cls-6{fill:#dff1f5}.cls-7{fill:#4b3a85}
        </style>
    </defs>
    <g id="Group_979" data-name="Group 979" transform="translate(-220.769 -3483.448)">
        <g id="Group_117" data-name="Group 117" transform="translate(229.258 3617.281)">
            <path id="Path_169" d="M269.831 38.929s-60.112-25.937-106.087 5.232-18.59 94.955 29.722 82.376 8.126-105.419-72.691-96.513-141.82 89.834-112.1 187.794S131.907 351.4 131.907 351.4" class="cls-1" data-name="Path 169" transform="translate(-8 -1.41)"/>
            <path id="Path_172" d="M143.253 268.988s-10.575-13.915-2.226-27.83S163.29 227.8 163.29 227.8s2.783 16.7-2.783 28.943a20.06 20.06 0 0 1-17.254 12.245z" class="cls-2" data-name="Path 172" transform="translate(13.71 25.783)"/>
            <path id="Path_173" d="M96.16 13.692s-5.566.445-7.013-4.007C87.588 5.232 90.483 0 90.483 0s7.681 3.117 7.681 7.9-2.004 5.792-2.004 5.792z" class="cls-2" data-name="Path 173" transform="translate(8.149)"/>
            <path id="Path_174" d="M122.22 286.589s6.011-6.234 12.356-2.783 8.238 12.468 8.238 12.468-12.245 4.564-17.143-1-3.451-8.685-3.451-8.685z" class="cls-3" data-name="Path 174" transform="translate(11.922 32.005)"/>
        </g>
        <circle id="Ellipse_41" cx="8.748" cy="8.748" r="8.748" class="cls-4" data-name="Ellipse 41" transform="rotate(80 -1833.405 2203.708)"/>
        <circle id="Ellipse_42" cx="4.748" cy="4.748" r="4.748" class="cls-5" data-name="Ellipse 42" transform="rotate(80 -1757.656 2120.761)"/>
        <g id="conversation" transform="translate(517.281 3634.281)">
            <path id="Path_596" d="M68.994 184H22.825A12.825 12.825 0 0 0 10 196.825v32.917a12.825 12.825 0 0 0 12.825 12.825h13.889l-.193.017 9.388 9.388.007-9.4h23.078a12.825 12.825 0 0 0 12.825-12.825v-32.922A12.825 12.825 0 0 0 68.994 184z" class="cls-6" data-name="Path 596" transform="translate(-7.863 -144.671)"/>
            <path id="Path_597" d="M38.047 246.246a2.137 2.137 0 0 1-1.512-.626l-8.779-8.779H14.962A14.979 14.979 0 0 1 0 221.879v-32.917A14.979 14.979 0 0 1 14.962 174h21.589a2.137 2.137 0 1 1 0 4.275H14.962a10.7 10.7 0 0 0-10.687 10.687v32.917a10.7 10.7 0 0 0 10.687 10.687h13.889a2.138 2.138 0 0 1 1.96 1.284l5.1 5.1v-4.25a2.137 2.137 0 0 1 2.137-2.136h23.083a10.7 10.7 0 0 0 10.687-10.687v-14.746a2.137 2.137 0 1 1 4.275 0v14.748a14.979 14.979 0 0 1-14.962 14.962H40.189l-.005 7.269a2.138 2.138 0 0 1-2.137 2.136z" class="cls-7" data-name="Path 597" transform="translate(0 -136.808)"/>
            <path id="Path_598" d="M240.339 10h-5.41A28.93 28.93 0 0 0 206 38.93a28.93 28.93 0 0 0 28.93 28.93h5.41a28.922 28.922 0 0 0 8.508-1.272l8.879 8.874v-13.41a28.884 28.884 0 0 0 11.542-23.122A28.929 28.929 0 0 0 240.339 10z" class="cls-2" data-name="Path 598" transform="translate(-161.968 -7.863)"/>
            <path id="Path_599" d="M249.864 69.736a2.138 2.138 0 0 1-1.511-.626l-7.991-7.987a31.126 31.126 0 0 1-7.885 1.011h-5.41a31.067 31.067 0 1 1 0-62.134h5.41a31.1 31.1 0 0 1 31.067 31.067 30.732 30.732 0 0 1-3.376 14.1A31.364 31.364 0 0 1 252 55.232V67.6a2.138 2.138 0 0 1-2.137 2.137zm-8.88-13.149a2.138 2.138 0 0 1 1.511.626l5.231 5.228V54.19a2.138 2.138 0 0 1 .851-1.707 26.793 26.793 0 0 0-16.1-48.207h-5.41a26.792 26.792 0 0 0 0 53.584h5.41a26.8 26.8 0 0 0 7.88-1.178 2.135 2.135 0 0 1 .628-.095z" class="cls-7" data-name="Path 599" transform="translate(-154.106)"/>
            <path id="Path_600" d="M323.512 95.01a2.138 2.138 0 0 1-2.137-2.137v-5.136a4.045 4.045 0 0 1 3.187-3.965 4.775 4.775 0 1 0-5.824-4.659 2.137 2.137 0 0 1-4.275 0 9.082 9.082 0 0 1 2.876-6.616 8.98 8.98 0 0 1 6.811-2.411 9.051 9.051 0 0 1 1.5 17.822v4.964a2.137 2.137 0 0 1-2.138 2.138z" class="cls-7" data-name="Path 600" transform="translate(-247.247 -55.087)"/>
            <path id="Path_601" d="M348.937 210.6a2.135 2.135 0 1 1 1.511-.624 2.152 2.152 0 0 1-1.511.624z" class="cls-7" data-name="Path 601" transform="translate(-272.673 -162.228)"/>
            <path id="Path_602" d="M101.238 314.275h-45.1a2.137 2.137 0 0 1 0-4.275h45.1a2.137 2.137 0 0 1 0 4.275z" class="cls-7" data-name="Path 602" transform="translate(-42.458 -243.739)"/>
            <path id="Path_603" d="M267.137 370.275a2.139 2.139 0 1 1 1.511-.626 2.154 2.154 0 0 1-1.511.626z" class="cls-7" data-name="Path 603" transform="translate(-208.357 -287.769)"/>
            <path id="Path_604" d="M92.831 370.275H56.137a2.137 2.137 0 0 1 0-4.275h36.694a2.137 2.137 0 0 1 0 4.275z" class="cls-7" data-name="Path 604" transform="translate(-42.458 -287.769)"/>
            <path id="Path_605" d="M87.344 258.275H56.137a2.137 2.137 0 1 1 0-4.275h31.207a2.137 2.137 0 1 1 0 4.275z" class="cls-7" data-name="Path 605" transform="translate(-42.458 -199.708)"/>
        </g>
    </g>
</svg>
